<?xml version="1.0" encoding="UTF-8" standalone="no"?>
<!DOCTYPE svg PUBLIC "-//W3C//DTD SVG 1.1//EN"
 "http://www.w3.org/Graphics/SVG/1.1/DTD/svg11.dtd">
<!-- Generated by graphviz version 2.36.0 (20140111.2315)
 -->
<!-- Title: G Pages: 1 -->
<svg width="566pt" height="553pt"
 viewBox="0.00 0.00 566.00 553.00" xmlns="http://www.w3.org/2000/svg" xmlns:xlink="http://www.w3.org/1999/xlink">
<g id="graph0" class="graph" transform="scale(1 1) rotate(0) translate(4 549)">
<title>G</title>
<polygon fill="white" stroke="none" points="-4,4 -4,-549 562,-549 562,4 -4,4"/>
<g id="clust1" class="cluster"><title>cluster_legend</title>
<polygon fill="none" stroke="black" stroke-width="2" points="8,-462 8,-537 294,-537 294,-462 8,-462"/>
<text text-anchor="middle" x="151" y="-521.8" font-family="Times,serif" font-size="14.00">view_frames Result</text>
</g>
<!-- map -->
<g id="node1" class="node"><title>map</title>
<ellipse fill="none" stroke="black" cx="151" cy="-414" rx="30.3206" ry="18"/>
<text text-anchor="middle" x="151" y="-410.3" font-family="Times,serif" font-size="14.00">map</text>
</g>
<!-- usb_cam0 -->
<g id="node2" class="node"><title>usb_cam0</title>
<ellipse fill="none" stroke="black" cx="151" cy="-282" rx="56.3173" ry="18"/>
<text text-anchor="middle" x="151" y="-278.3" font-family="Times,serif" font-size="14.00">usb_cam0</text>
</g>
<!-- map&#45;&gt;usb_cam0 -->
<g id="edge1" class="edge"><title>map&#45;&gt;usb_cam0</title>
<path fill="none" stroke="black" d="M151,-395.737C151,-373.981 151,-336.322 151,-310.564"/>
<polygon fill="black" stroke="black" points="154.5,-310.334 151,-300.334 147.5,-310.334 154.5,-310.334"/>
<text text-anchor="middle" x="354.5" y="-366.8" font-family="Times,serif" font-size="14.00">Broadcaster: /panopticon</text>
<text text-anchor="middle" x="354.5" y="-351.8" font-family="Times,serif" font-size="14.00">Average rate: 10000.000 Hz</text>
<text text-anchor="middle" x="354.5" y="-336.8" font-family="Times,serif" font-size="14.00">Most recent transform: 1460624859.984 ( 3.600 sec old)</text>
<text text-anchor="middle" x="354.5" y="-321.8" font-family="Times,serif" font-size="14.00">Buffer length: 0.000 sec</text>
</g>
<!-- center -->
<g id="node3" class="node"><title>center</title>
<ellipse fill="none" stroke="black" cx="151" cy="-150" rx="39.9464" ry="18"/>
<text text-anchor="middle" x="151" y="-146.3" font-family="Times,serif" font-size="14.00">center</text>
</g>
<!-- usb_cam0&#45;&gt;center -->
<g id="edge2" class="edge"><title>usb_cam0&#45;&gt;center</title>
<path fill="none" stroke="black" d="M151,-263.737C151,-241.981 151,-204.322 151,-178.564"/>
<polygon fill="black" stroke="black" points="154.5,-178.334 151,-168.334 147.5,-178.334 154.5,-178.334"/>
<text text-anchor="middle" x="354.5" y="-234.8" font-family="Times,serif" font-size="14.00">Broadcaster: /panopticon</text>
<text text-anchor="middle" x="354.5" y="-219.8" font-family="Times,serif" font-size="14.00">Average rate: 10000.000 Hz</text>
<text text-anchor="middle" x="354.5" y="-204.8" font-family="Times,serif" font-size="14.00">Most recent transform: 1460624858.792 ( 4.792 sec old)</text>
<text text-anchor="middle" x="354.5" y="-189.8" font-family="Times,serif" font-size="14.00">Buffer length: 0.000 sec</text>
</g>
<!-- usb_cam3 -->
<g id="node4" class="node"><title>usb_cam3</title>
<ellipse fill="none" stroke="black" cx="151" cy="-18" rx="56.3173" ry="18"/>
<text text-anchor="middle" x="151" y="-14.3" font-family="Times,serif" font-size="14.00">usb_cam3</text>
</g>
<!-- center&#45;&gt;usb_cam3 -->
<g id="edge3" class="edge"><title>center&#45;&gt;usb_cam3</title>
<path fill="none" stroke="black" d="M151,-131.737C151,-109.981 151,-72.3224 151,-46.5641"/>
<polygon fill="black" stroke="black" points="154.5,-46.3344 151,-36.3344 147.5,-46.3344 154.5,-46.3344"/>
<text text-anchor="middle" x="354.5" y="-102.8" font-family="Times,serif" font-size="14.00">Broadcaster: /panopticon</text>
<text text-anchor="middle" x="354.5" y="-87.8" font-family="Times,serif" font-size="14.00">Average rate: 10000.000 Hz</text>
<text text-anchor="middle" x="354.5" y="-72.8" font-family="Times,serif" font-size="14.00">Most recent transform: 1460624859.984 ( 3.600 sec old)</text>
<text text-anchor="middle" x="354.5" y="-57.8" font-family="Times,serif" font-size="14.00">Buffer length: 0.000 sec</text>
</g>
<!-- Recorded at time: 1460624863.584 -->
<g id="node5" class="node"><title>Recorded at time: 1460624863.584</title>
<text text-anchor="middle" x="151" y="-484.3" font-family="Times,serif" font-size="14.00">Recorded at time: 1460624863.584</text>
</g>
<!-- Recorded at time: 1460624863.584&#45;&gt;map -->
</g>
</svg>
